<svg xmlns="http://www.w3.org/2000/svg" xmlns:v="https://svgstorm.com"
viewBox = "0 0 1696 1509"
width="1696"
height="1509">
<g fill="None" fill-opacity="0.0" stroke="#FFFFFF" stroke-opacity="1.00" stroke-width="0.3"><path d="
M 0.00 1509.00 
L 1696.00 1509.00
L 1696.00 0.00
L 0.00 0.00
L 0.00 1509.00
M 685.00 200.00 
C 700.96 200.14 712.95 206.23 718.92 221.08 C 724.90 235.92 735.09 242.54 740.75 256.25 C 746.42 269.95 755.12 279.62 761.75 292.25 C 768.38 304.88 775.73 316.59 782.32 328.68 C 788.92 340.77 797.44 352.30 803.75 364.25 C 810.07 376.20 818.79 388.55 825.25 399.75 C 831.71 410.95 840.54 432.15 849.92 417.92 C 859.31 403.70 862.79 394.85 870.75 381.75 C 878.72 368.65 884.20 357.88 891.31 345.31 C 898.41 332.73 906.61 322.59 913.75 310.75 C 920.89 298.92 926.01 285.23 933.98 273.98 C 941.94 262.72 946.97 248.24 954.77 237.77 C 962.57 227.30 968.28 213.35 978.75 204.75 C 989.23 196.15 1014.53 197.20 1022.75 208.25 C 1030.97 219.30 1036.43 232.33 1044.30 243.70 C 1052.18 255.06 1057.53 268.22 1065.30 279.70 C 1073.08 291.17 1079.34 303.55 1086.75 315.25 C 1094.17 326.94 1100.28 339.52 1107.75 351.25 C 1115.23 362.98 1120.45 376.18 1128.25 387.75 C 1136.06 399.31 1142.83 411.15 1149.75 423.25 C 1156.68 435.34 1163.57 447.40 1170.77 459.23 C 1177.97 471.06 1184.45 483.41 1191.75 495.25 C 1199.05 507.09 1205.56 519.28 1212.77 531.23 C 1219.98 543.18 1226.95 556.00 1233.93 568.07 C 1240.90 580.14 1248.68 591.56 1255.30 603.70 C 1261.93 615.83 1269.36 627.94 1275.93 640.07 C 1282.49 652.21 1291.40 663.18 1297.30 675.70 C 1303.21 688.22 1312.44 698.91 1318.77 711.23 C 1325.10 723.55 1332.57 735.27 1339.77 747.23 C 1346.97 759.19 1353.30 771.16 1360.92 783.08 C 1368.53 795.00 1373.89 807.66 1381.31 819.69 C 1388.72 831.73 1395.57 842.74 1402.92 855.08 C 1410.27 867.41 1416.05 878.27 1423.92 891.08 C 1431.80 903.88 1433.16 919.81 1420.92 928.92 C 1408.68 938.03 1404.56 949.88 1393.30 958.30 C 1382.05 966.72 1375.49 978.10 1365.25 987.25 C 1355.00 996.39 1345.44 1005.77 1336.68 1015.68 C 1327.92 1025.59 1316.00 1033.77 1307.25 1043.25 C 1298.51 1052.74 1289.22 1063.23 1279.25 1072.25 C 1269.28 1081.27 1261.07 1091.93 1250.92 1100.92 C 1240.77 1109.90 1232.59 1120.45 1222.75 1129.75 C 1212.92 1139.05 1203.35 1148.47 1194.25 1158.25 C 1185.15 1168.03 1174.37 1176.35 1165.68 1186.68 C 1156.98 1197.01 1145.30 1204.24 1136.25 1214.25 C 1127.21 1224.27 1118.22 1233.84 1108.25 1243.25 C 1098.28 1252.65 1089.87 1262.46 1079.92 1271.92 C 1069.97 1281.38 1060.91 1291.32 1050.77 1300.77 C 1040.63 1310.22 1032.62 1319.16 1022.75 1329.75 C 1012.89 1340.35 994.96 1341.73 982.99 1335.01 C 971.02 1328.29 962.43 1317.46 952.70 1308.30 C 942.96 1299.14 933.15 1289.83 923.75 1280.25 C 914.34 1270.68 904.09 1261.76 894.75 1252.25 C 885.42 1242.74 875.51 1232.80 866.25 1223.75 C 856.99 1214.70 845.21 1197.58 834.75 1207.75 C 824.28 1217.91 815.96 1225.98 806.25 1236.25 C 796.53 1246.51 786.19 1254.31 777.68 1264.68 C 769.17 1275.05 756.73 1281.78 748.25 1292.25 C 739.77 1302.72 728.59 1310.15 719.31 1320.31 C 710.02 1330.46 697.71 1342.26 682.78 1339.22 C 667.84 1336.18 659.47 1325.96 649.25 1315.75 C 639.03 1305.55 631.10 1296.30 621.25 1286.75 C 611.40 1277.19 603.13 1266.48 593.25 1257.75 C 583.36 1249.02 573.77 1239.12 564.25 1229.75 C 554.72 1220.38 544.19 1211.44 535.25 1201.75 C 526.31 1192.07 516.17 1183.34 506.75 1173.25 C 497.34 1163.16 488.78 1154.06 478.75 1144.25 C 468.73 1134.43 459.43 1125.04 450.25 1115.75 C 441.06 1106.47 430.64 1097.61 421.25 1087.75 C 411.85 1077.90 402.59 1069.00 392.75 1059.25 C 382.91 1049.49 374.23 1039.88 364.75 1030.25 C 355.28 1020.62 344.97 1011.04 335.75 1001.25 C 326.54 991.46 315.96 982.48 306.75 973.25 C 297.54 964.02 286.17 954.08 278.25 944.75 C 270.34 935.41 256.19 924.34 255.35 911.31 C 254.52 898.27 266.31 882.82 272.25 871.25 C 278.19 859.68 286.67 846.75 292.98 834.98 C 299.28 823.20 307.51 811.60 314.31 799.31 C 321.10 787.01 328.55 775.50 335.77 763.77 C 342.98 752.03 349.11 739.38 356.77 727.77 C 364.43 716.16 370.44 703.58 377.32 691.32 C 384.21 679.06 392.33 667.89 398.92 655.92 C 405.50 643.95 411.82 631.26 419.77 619.77 C 427.72 608.28 433.09 594.95 439.98 582.98 C 446.86 571.00 455.78 560.26 462.70 548.70 C 469.61 537.13 475.56 523.88 483.75 512.75 C 491.94 501.62 496.03 486.56 503.32 475.32 C 510.62 464.08 518.94 452.56 525.25 440.25 C 531.57 427.95 539.95 416.65 546.77 404.77 C 553.59 392.89 559.56 379.70 567.25 368.25 C 574.94 356.80 581.03 344.39 588.31 332.31 C 595.58 320.22 603.08 308.89 609.92 296.92 C 616.77 284.96 623.91 273.11 630.75 260.75 C 637.60 248.40 645.02 237.76 651.77 224.77 C 658.52 211.78 668.20 199.85 685.00 200.00 Z"/>
</g>
<g fill="None" fill-opacity="0.0" stroke="#000000" stroke-opacity="1.00" stroke-width="0.3"><path d="
M 685.00 200.00 
C 668.20 199.85 658.52 211.78 651.77 224.77 C 645.02 237.76 637.60 248.40 630.75 260.75 C 623.91 273.11 616.77 284.96 609.92 296.92 C 603.08 308.89 595.58 320.22 588.31 332.31 C 581.03 344.39 574.94 356.80 567.25 368.25 C 559.56 379.70 553.59 392.89 546.77 404.77 C 539.95 416.65 531.57 427.95 525.25 440.25 C 518.94 452.56 510.62 464.08 503.32 475.32 C 496.03 486.56 491.94 501.62 483.75 512.75 C 475.56 523.88 469.61 537.13 462.70 548.70 C 455.78 560.26 446.86 571.00 439.98 582.98 C 433.09 594.95 427.72 608.28 419.77 619.77 C 411.82 631.26 405.50 643.95 398.92 655.92 C 392.33 667.89 384.21 679.06 377.32 691.32 C 370.44 703.58 364.43 716.16 356.77 727.77 C 349.11 739.38 342.98 752.03 335.77 763.77 C 328.55 775.50 321.10 787.01 314.31 799.31 C 307.51 811.60 299.28 823.20 292.98 834.98 C 286.67 846.75 278.19 859.68 272.25 871.25 C 266.31 882.82 254.52 898.27 255.35 911.31 C 256.19 924.34 270.34 935.41 278.25 944.75 C 286.17 954.08 297.54 964.02 306.75 973.25 C 315.96 982.48 326.54 991.46 335.75 1001.25 C 344.97 1011.04 355.28 1020.62 364.75 1030.25 C 374.23 1039.88 382.91 1049.49 392.75 1059.25 C 402.59 1069.00 411.85 1077.90 421.25 1087.75 C 430.64 1097.61 441.06 1106.47 450.25 1115.75 C 459.43 1125.04 468.73 1134.43 478.75 1144.25 C 488.78 1154.06 497.34 1163.16 506.75 1173.25 C 516.17 1183.34 526.31 1192.07 535.25 1201.75 C 544.19 1211.44 554.72 1220.38 564.25 1229.75 C 573.77 1239.12 583.36 1249.02 593.25 1257.75 C 603.13 1266.48 611.40 1277.19 621.25 1286.75 C 631.10 1296.30 639.03 1305.55 649.25 1315.75 C 659.47 1325.96 667.84 1336.18 682.78 1339.22 C 697.71 1342.26 710.02 1330.46 719.31 1320.31 C 728.59 1310.15 739.77 1302.72 748.25 1292.25 C 756.73 1281.78 769.17 1275.05 777.68 1264.68 C 786.19 1254.31 796.53 1246.51 806.25 1236.25 C 815.96 1225.98 824.28 1217.91 834.75 1207.75 C 845.21 1197.58 856.99 1214.70 866.25 1223.75 C 875.51 1232.80 885.42 1242.74 894.75 1252.25 C 904.09 1261.76 914.34 1270.68 923.75 1280.25 C 933.15 1289.83 942.96 1299.14 952.70 1308.30 C 962.43 1317.46 971.02 1328.29 982.99 1335.01 C 994.96 1341.73 1012.89 1340.35 1022.75 1329.75 C 1032.62 1319.16 1040.63 1310.22 1050.77 1300.77 C 1060.91 1291.32 1069.97 1281.38 1079.92 1271.92 C 1089.87 1262.46 1098.28 1252.65 1108.25 1243.25 C 1118.22 1233.84 1127.21 1224.27 1136.25 1214.25 C 1145.30 1204.24 1156.98 1197.01 1165.68 1186.68 C 1174.37 1176.35 1185.15 1168.03 1194.25 1158.25 C 1203.35 1148.47 1212.92 1139.05 1222.75 1129.75 C 1232.59 1120.45 1240.77 1109.90 1250.92 1100.92 C 1261.07 1091.93 1269.28 1081.27 1279.25 1072.25 C 1289.22 1063.23 1298.51 1052.74 1307.25 1043.25 C 1316.00 1033.77 1327.92 1025.59 1336.68 1015.68 C 1345.44 1005.77 1355.00 996.39 1365.25 987.25 C 1375.49 978.10 1382.05 966.72 1393.30 958.30 C 1404.56 949.88 1408.68 938.03 1420.92 928.92 C 1433.16 919.81 1431.80 903.88 1423.92 891.08 C 1416.05 878.27 1410.27 867.41 1402.92 855.08 C 1395.57 842.74 1388.72 831.73 1381.31 819.69 C 1373.89 807.66 1368.53 795.00 1360.92 783.08 C 1353.30 771.16 1346.97 759.19 1339.77 747.23 C 1332.57 735.27 1325.10 723.55 1318.77 711.23 C 1312.44 698.91 1303.21 688.22 1297.30 675.70 C 1291.40 663.18 1282.49 652.21 1275.93 640.07 C 1269.36 627.94 1261.93 615.83 1255.30 603.70 C 1248.68 591.56 1240.90 580.14 1233.93 568.07 C 1226.95 556.00 1219.98 543.18 1212.77 531.23 C 1205.56 519.28 1199.05 507.09 1191.75 495.25 C 1184.45 483.41 1177.97 471.06 1170.77 459.23 C 1163.57 447.40 1156.68 435.34 1149.75 423.25 C 1142.83 411.15 1136.06 399.31 1128.25 387.75 C 1120.45 376.18 1115.23 362.98 1107.75 351.25 C 1100.28 339.52 1094.17 326.94 1086.75 315.25 C 1079.34 303.55 1073.08 291.17 1065.30 279.70 C 1057.53 268.22 1052.18 255.06 1044.30 243.70 C 1036.43 232.33 1030.97 219.30 1022.75 208.25 C 1014.53 197.20 989.23 196.15 978.75 204.75 C 968.28 213.35 962.57 227.30 954.77 237.77 C 946.97 248.24 941.94 262.72 933.98 273.98 C 926.01 285.23 920.89 298.92 913.75 310.75 C 906.61 322.59 898.41 332.73 891.31 345.31 C 884.20 357.88 878.72 368.65 870.75 381.75 C 862.79 394.85 859.31 403.70 849.92 417.92 C 840.54 432.15 831.71 410.95 825.25 399.75 C 818.79 388.55 810.07 376.20 803.75 364.25 C 797.44 352.30 788.92 340.77 782.32 328.68 C 775.73 316.59 768.38 304.88 761.75 292.25 C 755.12 279.62 746.42 269.95 740.75 256.25 C 735.09 242.54 724.90 235.92 718.92 221.08 C 712.95 206.23 700.96 200.14 685.00 200.00
M 996.00 282.00 
C 1006.59 287.14 1009.87 300.16 1016.31 309.70 C 1022.74 319.23 1028.04 329.92 1034.25 339.75 C 1040.46 349.58 1046.40 359.59 1052.25 369.75 C 1058.09 379.91 1064.04 389.95 1069.77 400.23 C 1075.50 410.51 1082.52 420.63 1087.92 431.08 C 1093.33 441.53 1099.50 451.28 1105.77 461.23 C 1112.04 471.18 1116.91 481.61 1123.75 491.25 C 1130.60 500.88 1134.40 512.23 1140.92 522.08 C 1147.45 531.92 1153.86 542.26 1159.25 552.75 C 1164.65 563.23 1171.49 572.63 1176.92 583.08 C 1182.35 593.52 1188.99 602.94 1194.92 613.08 C 1200.86 623.21 1206.51 633.24 1212.77 643.23 C 1219.03 653.22 1223.91 663.93 1229.92 674.08 C 1235.94 684.22 1242.55 694.41 1248.31 704.70 C 1254.06 714.98 1260.78 724.59 1265.92 735.08 C 1271.07 745.56 1279.04 754.27 1284.25 764.75 C 1289.47 775.22 1295.82 784.79 1302.25 794.75 C 1308.68 804.70 1313.87 815.70 1320.25 825.75 C 1326.64 835.80 1331.86 845.56 1338.25 855.75 C 1344.65 865.93 1348.67 876.36 1355.31 886.70 C 1361.94 897.03 1368.40 909.79 1357.70 917.70 C 1346.99 925.60 1342.78 933.60 1333.25 941.25 C 1323.72 948.90 1318.04 958.10 1309.25 966.25 C 1300.45 974.39 1292.63 980.99 1284.25 989.25 C 1275.86 997.51 1268.21 1005.12 1260.30 1013.30 C 1252.38 1021.47 1243.92 1028.85 1235.75 1036.75 C 1227.59 1044.65 1219.97 1053.78 1211.75 1061.75 C 1203.54 1069.73 1194.90 1076.96 1187.08 1085.08 C 1179.26 1093.20 1171.34 1101.43 1163.30 1109.30 C 1155.26 1117.18 1147.44 1125.45 1139.23 1133.23 C 1131.02 1141.01 1123.49 1149.38 1115.25 1157.25 C 1107.01 1165.12 1098.57 1173.34 1090.75 1181.75 C 1082.93 1190.16 1073.78 1197.14 1065.92 1204.92 C 1058.05 1212.70 1050.32 1221.95 1042.75 1229.75 C 1035.17 1237.55 1025.40 1245.71 1018.25 1253.25 C 1011.10 1260.78 1001.22 1276.10 992.23 1267.77 C 983.24 1259.44 976.69 1252.02 968.25 1243.75 C 959.81 1235.48 953.02 1228.08 943.75 1220.25 C 934.48 1212.41 929.88 1203.98 919.75 1196.25 C 909.62 1188.52 906.77 1180.24 895.25 1171.75 C 883.72 1163.26 889.16 1151.89 898.77 1143.77 C 908.38 1135.65 912.82 1126.62 921.75 1118.75 C 930.68 1110.88 937.94 1102.95 946.25 1095.25 C 954.56 1087.55 961.51 1078.56 969.75 1070.75 C 977.99 1062.94 986.71 1054.94 994.75 1046.75 C 1002.79 1038.56 1010.20 1030.38 1018.70 1022.70 C 1027.19 1015.02 1033.20 1005.68 1041.77 997.77 C 1050.34 989.86 1057.79 982.51 1066.25 974.25 C 1074.70 965.99 1081.91 957.50 1090.25 949.25 C 1098.59 941.00 1105.75 934.26 1114.23 925.23 C 1122.71 916.20 1116.74 899.49 1111.68 889.32 C 1106.62 879.16 1098.95 869.54 1093.70 859.30 C 1088.45 849.07 1081.94 839.02 1076.23 828.77 C 1070.52 818.52 1063.88 808.34 1057.75 798.25 C 1051.61 788.17 1047.36 777.03 1040.70 767.31 C 1034.03 757.58 1027.68 748.06 1022.22 737.78 C 1016.77 727.49 1010.20 717.93 1004.25 707.75 C 998.29 697.58 992.46 686.46 986.68 676.32 C 980.90 666.18 974.57 656.51 968.70 646.31 C 962.82 636.10 957.26 625.81 951.23 615.77 C 945.19 605.73 939.30 595.80 933.25 585.75 C 927.20 575.70 921.65 565.81 915.25 555.75 C 908.85 545.70 904.04 534.87 897.23 524.77 C 890.41 514.68 886.98 504.80 879.25 494.75 C 871.51 484.71 882.50 473.81 887.77 463.77 C 893.04 453.73 899.76 443.90 905.75 433.75 C 911.74 423.60 918.18 413.31 924.25 403.25 C 930.32 393.19 935.93 382.98 941.75 372.75 C 947.57 362.52 954.03 353.17 959.92 342.92 C 965.81 332.66 970.65 321.77 976.98 311.98 C 983.30 302.18 989.00 291.32 996.00 282.00
M 683.00 1271.00 
C 671.86 1258.71 659.62 1247.17 648.25 1234.75 C 636.87 1222.34 623.43 1211.05 611.92 1199.08 C 600.41 1187.11 587.75 1175.27 575.77 1163.23 C 563.79 1151.19 552.50 1138.39 540.25 1126.75 C 527.99 1115.12 516.35 1102.42 504.25 1090.75 C 492.15 1079.09 479.81 1067.67 467.75 1055.25 C 455.69 1042.83 444.33 1032.16 432.25 1019.75 C 420.17 1007.34 408.00 996.41 396.25 983.75 C 384.50 971.09 370.73 961.68 359.90 948.10 C 349.07 934.52 331.92 927.69 323.75 912.25 C 315.59 896.81 336.43 877.19 342.77 862.77 C 349.11 848.35 362.18 832.67 369.78 817.78 C 377.37 802.88 388.23 787.40 396.31 772.31 C 404.38 757.21 414.79 742.75 422.75 727.75 C 430.72 712.76 440.56 697.25 449.26 682.26 C 457.96 667.26 467.38 652.31 476.25 637.25 C 485.12 622.19 493.18 606.22 502.25 591.25 C 511.33 576.29 520.78 561.64 529.25 546.25 C 537.73 530.87 547.77 516.64 555.92 500.92 C 564.08 485.21 576.17 470.67 580.00 455.00
C 588.53 447.25 595.27 434.64 601.75 423.75 C 608.24 412.86 614.25 400.24 621.30 389.30 C 628.36 378.37 633.55 367.14 640.75 355.75 C 647.96 344.37 652.65 333.19 660.75 321.75 C 668.85 310.32 670.99 300.37 680.77 288.77 C 690.55 277.17 697.96 297.74 704.25 307.75 C 710.55 317.75 717.61 330.14 724.25 340.75 C 730.89 351.36 737.16 363.97 744.25 374.75 C 751.35 385.52 756.22 397.23 763.77 408.23 C 771.32 419.23 776.70 430.76 783.31 442.69 C 789.91 454.63 795.91 462.93 803.75 475.25 C 811.59 487.56 801.60 502.98 794.74 513.74 C 787.89 524.51 781.06 536.06 774.25 547.25 C 767.43 558.43 761.14 568.99 754.25 580.25 C 747.36 591.51 741.79 603.94 734.68 614.68 C 727.56 625.42 722.09 637.11 715.08 648.08 C 708.06 659.04 701.13 670.89 695.22 682.22 C 689.32 693.56 681.13 702.99 674.70 714.70 C 668.26 726.41 661.00 737.56 655.23 749.23 C 649.46 760.89 640.74 770.85 635.25 782.25 C 629.75 793.64 621.57 804.87 615.25 816.25 C 608.93 827.62 601.98 838.49 595.23 849.23 C 588.48 859.97 582.74 873.38 575.75 883.75 C 568.75 894.11 559.14 908.97 567.25 919.75 C 575.37 930.53 583.51 938.84 592.75 948.25 C 601.99 957.65 610.62 966.16 619.75 975.25 C 628.89 984.33 637.70 992.58 646.25 1001.75 C 654.79 1010.92 664.60 1019.41 673.25 1028.75 C 681.90 1038.10 691.43 1045.77 699.75 1055.25 C 708.07 1064.72 717.99 1073.69 726.70 1082.30 C 735.40 1090.92 744.46 1100.72 753.08 1108.92 C 761.71 1117.12 772.14 1127.69 780.25 1135.75 C 788.36 1143.82 804.60 1158.21 795.29 1168.29 C 785.99 1178.38 775.65 1184.02 766.75 1193.75 C 757.86 1203.49 750.22 1211.83 740.30 1220.30 C 730.39 1228.78 723.70 1239.97 714.30 1248.30 C 704.89 1256.63 696.84 1269.76 683.00 1271.00
M 841.00 545.00 
C 850.16 549.82 852.68 560.82 857.77 569.23 C 862.86 577.64 868.94 585.80 873.32 594.68 C 877.71 603.56 884.28 612.29 888.77 621.23 C 893.26 630.17 898.98 638.31 903.77 647.23 C 908.56 656.15 914.15 665.03 919.26 673.74 C 924.36 682.45 929.80 690.71 934.30 699.70 C 938.81 708.68 945.24 716.24 949.77 725.23 C 954.30 734.22 960.36 742.85 965.30 751.70 C 970.24 760.55 976.32 768.44 980.32 777.68 C 984.32 786.92 992.20 794.56 996.30 803.70 C 1000.41 812.83 1006.80 821.14 1010.92 830.08 C 1015.05 839.01 1023.22 847.37 1026.77 856.23 C 1030.32 865.09 1038.68 873.96 1041.77 882.23 C 1044.86 890.50 1056.83 902.20 1053.67 910.67 C 1050.51 919.14 1037.92 923.36 1032.25 931.25 C 1026.57 939.14 1018.23 944.64 1011.92 951.92 C 1005.60 959.20 997.23 965.55 990.75 972.75 C 984.28 979.96 976.41 985.85 969.70 992.70 C 962.99 999.56 956.34 1006.76 949.75 1013.75 C 943.16 1020.74 934.19 1026.99 927.75 1033.75 C 921.32 1040.52 913.78 1047.37 906.75 1053.75 C 899.72 1060.13 893.71 1069.51 886.70 1075.70 C 879.69 1081.88 871.88 1089.28 865.25 1095.25 C 858.62 1101.22 851.82 1113.10 843.75 1115.75 C 835.69 1118.40 829.09 1103.53 822.08 1098.92 C 815.07 1094.30 808.70 1084.04 801.75 1078.25 C 794.80 1072.46 787.84 1063.74 780.75 1057.25 C 773.66 1050.76 767.25 1043.44 760.25 1036.75 C 753.25 1030.06 746.23 1022.47 739.25 1015.75 C 732.27 1009.03 725.74 1001.87 718.75 995.25 C 711.76 988.62 705.33 981.38 697.75 975.25 C 690.17 969.11 684.53 960.46 677.25 953.75 C 669.97 947.04 662.90 941.02 656.23 933.77 C 649.57 926.51 641.23 921.82 634.75 913.25 C 628.28 904.68 636.06 892.09 640.97 883.97 C 645.89 875.86 651.63 866.11 656.75 857.75 C 661.88 849.39 666.75 840.36 671.77 831.77 C 676.79 823.18 682.50 815.31 687.25 806.25 C 692.01 797.20 697.90 788.64 702.71 779.71 C 707.51 770.77 713.46 763.12 718.25 754.25 C 723.05 745.39 728.41 736.35 733.75 727.75 C 739.10 719.16 742.19 709.84 748.31 701.31 C 754.42 692.77 758.36 683.86 762.99 674.99 C 767.63 666.12 775.75 658.91 779.32 649.32 C 782.89 639.74 790.09 632.97 794.31 623.31 C 798.52 613.64 805.29 605.86 809.31 596.31 C 813.32 586.75 821.62 580.94 825.25 571.25 C 828.89 561.57 836.88 554.49 841.00 545.00 Z"/>
</g>
<g fill="None" fill-opacity="0.0" stroke="#FFFFFF" stroke-opacity="1.00" stroke-width="0.3"><path d="
M 996.00 282.00 
C 989.00 291.32 983.30 302.18 976.98 311.98 C 970.65 321.77 965.81 332.66 959.92 342.92 C 954.03 353.17 947.57 362.52 941.75 372.75 C 935.93 382.98 930.32 393.19 924.25 403.25 C 918.18 413.31 911.74 423.60 905.75 433.75 C 899.76 443.90 893.04 453.73 887.77 463.77 C 882.50 473.81 871.51 484.71 879.25 494.75 C 886.98 504.80 890.41 514.68 897.23 524.77 C 904.04 534.87 908.85 545.70 915.25 555.75 C 921.65 565.81 927.20 575.70 933.25 585.75 C 939.30 595.80 945.19 605.73 951.23 615.77 C 957.26 625.81 962.82 636.10 968.70 646.31 C 974.57 656.51 980.90 666.18 986.68 676.32 C 992.46 686.46 998.29 697.58 1004.25 707.75 C 1010.20 717.93 1016.77 727.49 1022.22 737.78 C 1027.68 748.06 1034.03 757.58 1040.70 767.31 C 1047.36 777.03 1051.61 788.17 1057.75 798.25 C 1063.88 808.34 1070.52 818.52 1076.23 828.77 C 1081.94 839.02 1088.45 849.07 1093.70 859.30 C 1098.95 869.54 1106.62 879.16 1111.68 889.32 C 1116.74 899.49 1122.71 916.20 1114.23 925.23 C 1105.75 934.26 1098.59 941.00 1090.25 949.25 C 1081.91 957.50 1074.70 965.99 1066.25 974.25 C 1057.79 982.51 1050.34 989.86 1041.77 997.77 C 1033.20 1005.68 1027.19 1015.02 1018.70 1022.70 C 1010.20 1030.38 1002.79 1038.56 994.75 1046.75 C 986.71 1054.94 977.99 1062.94 969.75 1070.75 C 961.51 1078.56 954.56 1087.55 946.25 1095.25 C 937.94 1102.95 930.68 1110.88 921.75 1118.75 C 912.82 1126.62 908.38 1135.65 898.77 1143.77 C 889.16 1151.89 883.72 1163.26 895.25 1171.75 C 906.77 1180.24 909.62 1188.52 919.75 1196.25 C 929.88 1203.98 934.48 1212.41 943.75 1220.25 C 953.02 1228.08 959.81 1235.48 968.25 1243.75 C 976.69 1252.02 983.24 1259.44 992.23 1267.77 C 1001.22 1276.10 1011.10 1260.78 1018.25 1253.25 C 1025.40 1245.71 1035.17 1237.55 1042.75 1229.75 C 1050.32 1221.95 1058.05 1212.70 1065.92 1204.92 C 1073.78 1197.14 1082.93 1190.16 1090.75 1181.75 C 1098.57 1173.34 1107.01 1165.12 1115.25 1157.25 C 1123.49 1149.38 1131.02 1141.01 1139.23 1133.23 C 1147.44 1125.45 1155.26 1117.18 1163.30 1109.30 C 1171.34 1101.43 1179.26 1093.20 1187.08 1085.08 C 1194.90 1076.96 1203.54 1069.73 1211.75 1061.75 C 1219.97 1053.78 1227.59 1044.65 1235.75 1036.75 C 1243.92 1028.85 1252.38 1021.47 1260.30 1013.30 C 1268.21 1005.12 1275.86 997.51 1284.25 989.25 C 1292.63 980.99 1300.45 974.39 1309.25 966.25 C 1318.04 958.10 1323.72 948.90 1333.25 941.25 C 1342.78 933.60 1346.99 925.60 1357.70 917.70 C 1368.40 909.79 1361.94 897.03 1355.31 886.70 C 1348.67 876.36 1344.65 865.93 1338.25 855.75 C 1331.86 845.56 1326.64 835.80 1320.25 825.75 C 1313.87 815.70 1308.68 804.70 1302.25 794.75 C 1295.82 784.79 1289.47 775.22 1284.25 764.75 C 1279.04 754.27 1271.07 745.56 1265.92 735.08 C 1260.78 724.59 1254.06 714.98 1248.31 704.70 C 1242.55 694.41 1235.94 684.22 1229.92 674.08 C 1223.91 663.93 1219.03 653.22 1212.77 643.23 C 1206.51 633.24 1200.86 623.21 1194.92 613.08 C 1188.99 602.94 1182.35 593.52 1176.92 583.08 C 1171.49 572.63 1164.65 563.23 1159.25 552.75 C 1153.86 542.26 1147.45 531.92 1140.92 522.08 C 1134.40 512.23 1130.60 500.88 1123.75 491.25 C 1116.91 481.61 1112.04 471.18 1105.77 461.23 C 1099.50 451.28 1093.33 441.53 1087.92 431.08 C 1082.52 420.63 1075.50 410.51 1069.77 400.23 C 1064.04 389.95 1058.09 379.91 1052.25 369.75 C 1046.40 359.59 1040.46 349.58 1034.25 339.75 C 1028.04 329.92 1022.74 319.23 1016.31 309.70 C 1009.87 300.16 1006.59 287.14 996.00 282.00 Z"/>
</g>
<g fill="None" fill-opacity="0.0" stroke="#FFFFFF" stroke-opacity="1.00" stroke-width="0.3"><path d="
M 683.00 1271.00 
C 696.84 1269.76 704.89 1256.63 714.30 1248.30 C 723.70 1239.97 730.39 1228.78 740.30 1220.30 C 750.22 1211.83 757.86 1203.49 766.75 1193.75 C 775.65 1184.02 785.99 1178.38 795.29 1168.29 C 804.60 1158.21 788.36 1143.82 780.25 1135.75 C 772.14 1127.69 761.71 1117.12 753.08 1108.92 C 744.46 1100.72 735.40 1090.92 726.70 1082.30 C 717.99 1073.69 708.07 1064.72 699.75 1055.25 C 691.43 1045.77 681.90 1038.10 673.25 1028.75 C 664.60 1019.41 654.79 1010.92 646.25 1001.75 C 637.70 992.58 628.89 984.33 619.75 975.25 C 610.62 966.16 601.99 957.65 592.75 948.25 C 583.51 938.84 575.37 930.53 567.25 919.75 C 559.14 908.97 568.75 894.11 575.75 883.75 C 582.74 873.38 588.48 859.97 595.23 849.23 C 601.98 838.49 608.93 827.62 615.25 816.25 C 621.57 804.87 629.75 793.64 635.25 782.25 C 640.74 770.85 649.46 760.89 655.23 749.23 C 661.00 737.56 668.26 726.41 674.70 714.70 C 681.13 702.99 689.32 693.56 695.22 682.22 C 701.13 670.89 708.06 659.04 715.08 648.08 C 722.09 637.11 727.56 625.42 734.68 614.68 C 741.79 603.94 747.36 591.51 754.25 580.25 C 761.14 568.99 767.43 558.43 774.25 547.25 C 781.06 536.06 787.89 524.51 794.74 513.74 C 801.60 502.98 811.59 487.56 803.75 475.25 C 795.91 462.93 789.91 454.63 783.31 442.69 C 776.70 430.76 771.32 419.23 763.77 408.23 C 756.22 397.23 751.35 385.52 744.25 374.75 C 737.16 363.97 730.89 351.36 724.25 340.75 C 717.61 330.14 710.55 317.75 704.25 307.75 C 697.96 297.74 690.55 277.17 680.77 288.77 C 670.99 300.37 668.85 310.32 660.75 321.75 C 652.65 333.19 647.96 344.37 640.75 355.75 C 633.55 367.14 628.36 378.37 621.30 389.30 C 614.25 400.24 608.24 412.86 601.75 423.75 C 595.27 434.64 588.53 447.25 580.00 455.00
C 576.17 470.67 564.08 485.21 555.92 500.92 C 547.77 516.64 537.73 530.87 529.25 546.25 C 520.78 561.64 511.33 576.29 502.25 591.25 C 493.18 606.22 485.12 622.19 476.25 637.25 C 467.38 652.31 457.96 667.26 449.26 682.26 C 440.56 697.25 430.72 712.76 422.75 727.75 C 414.79 742.75 404.38 757.21 396.31 772.31 C 388.23 787.40 377.37 802.88 369.78 817.78 C 362.18 832.67 349.11 848.35 342.77 862.77 C 336.43 877.19 315.59 896.81 323.75 912.25 C 331.92 927.69 349.07 934.52 359.90 948.10 C 370.73 961.68 384.50 971.09 396.25 983.75 C 408.00 996.41 420.17 1007.34 432.25 1019.75 C 444.33 1032.16 455.69 1042.83 467.75 1055.25 C 479.81 1067.67 492.15 1079.09 504.25 1090.75 C 516.35 1102.42 527.99 1115.12 540.25 1126.75 C 552.50 1138.39 563.79 1151.19 575.77 1163.23 C 587.75 1175.27 600.41 1187.11 611.92 1199.08 C 623.43 1211.05 636.87 1222.34 648.25 1234.75 C 659.62 1247.17 671.86 1258.71 683.00 1271.00 Z"/>
</g>
<g fill="None" fill-opacity="0.0" stroke="#FFFFFF" stroke-opacity="1.00" stroke-width="0.3"><path d="
M 841.00 545.00 
C 836.88 554.49 828.89 561.57 825.25 571.25 C 821.62 580.94 813.32 586.75 809.31 596.31 C 805.29 605.86 798.52 613.64 794.31 623.31 C 790.09 632.97 782.89 639.74 779.32 649.32 C 775.75 658.91 767.63 666.12 762.99 674.99 C 758.36 683.86 754.42 692.77 748.31 701.31 C 742.19 709.84 739.10 719.16 733.75 727.75 C 728.41 736.35 723.05 745.39 718.25 754.25 C 713.46 763.12 707.51 770.77 702.71 779.71 C 697.90 788.64 692.01 797.20 687.25 806.25 C 682.50 815.31 676.79 823.18 671.77 831.77 C 666.75 840.36 661.88 849.39 656.75 857.75 C 651.63 866.11 645.89 875.86 640.97 883.97 C 636.06 892.09 628.28 904.68 634.75 913.25 C 641.23 921.82 649.57 926.51 656.23 933.77 C 662.90 941.02 669.97 947.04 677.25 953.75 C 684.53 960.46 690.17 969.11 697.75 975.25 C 705.33 981.38 711.76 988.62 718.75 995.25 C 725.74 1001.87 732.27 1009.03 739.25 1015.75 C 746.23 1022.47 753.25 1030.06 760.25 1036.75 C 767.25 1043.44 773.66 1050.76 780.75 1057.25 C 787.84 1063.74 794.80 1072.46 801.75 1078.25 C 808.70 1084.04 815.07 1094.30 822.08 1098.92 C 829.09 1103.53 835.69 1118.40 843.75 1115.75 C 851.82 1113.10 858.62 1101.22 865.25 1095.25 C 871.88 1089.28 879.69 1081.88 886.70 1075.70 C 893.71 1069.51 899.72 1060.13 906.75 1053.75 C 913.78 1047.37 921.32 1040.52 927.75 1033.75 C 934.19 1026.99 943.16 1020.74 949.75 1013.75 C 956.34 1006.76 962.99 999.56 969.70 992.70 C 976.41 985.85 984.28 979.96 990.75 972.75 C 997.23 965.55 1005.60 959.20 1011.92 951.92 C 1018.23 944.64 1026.57 939.14 1032.25 931.25 C 1037.92 923.36 1050.51 919.14 1053.67 910.67 C 1056.83 902.20 1044.86 890.50 1041.77 882.23 C 1038.68 873.96 1030.32 865.09 1026.77 856.23 C 1023.22 847.37 1015.05 839.01 1010.92 830.08 C 1006.80 821.14 1000.41 812.83 996.30 803.70 C 992.20 794.56 984.32 786.92 980.32 777.68 C 976.32 768.44 970.24 760.55 965.30 751.70 C 960.36 742.85 954.30 734.22 949.77 725.23 C 945.24 716.24 938.81 708.68 934.30 699.70 C 929.80 690.71 924.36 682.45 919.26 673.74 C 914.15 665.03 908.56 656.15 903.77 647.23 C 898.98 638.31 893.26 630.17 888.77 621.23 C 884.28 612.29 877.71 603.56 873.32 594.68 C 868.94 585.80 862.86 577.64 857.77 569.23 C 852.68 560.82 850.16 549.82 841.00 545.00 Z"/>
</g>
<g fill="#FFFFFF" fill-opacity="1.00" stroke="None">
<path d="
M 0.00 1509.00 
L 1696.00 1509.00
L 1696.00 0.00
L 0.00 0.00
L 0.00 1509.00
M 685.00 200.00 
C 700.96 200.14 712.95 206.23 718.92 221.08 C 724.90 235.92 735.09 242.54 740.75 256.25 C 746.42 269.95 755.12 279.62 761.75 292.25 C 768.38 304.88 775.73 316.59 782.32 328.68 C 788.92 340.77 797.44 352.30 803.75 364.25 C 810.07 376.20 818.79 388.55 825.25 399.75 C 831.71 410.95 840.54 432.15 849.92 417.92 C 859.31 403.70 862.79 394.85 870.75 381.75 C 878.72 368.65 884.20 357.88 891.31 345.31 C 898.41 332.73 906.61 322.59 913.75 310.75 C 920.89 298.92 926.01 285.23 933.98 273.98 C 941.94 262.72 946.97 248.24 954.77 237.77 C 962.57 227.30 968.28 213.35 978.75 204.75 C 989.23 196.15 1014.53 197.20 1022.75 208.25 C 1030.97 219.30 1036.43 232.33 1044.30 243.70 C 1052.18 255.06 1057.53 268.22 1065.30 279.70 C 1073.08 291.17 1079.34 303.55 1086.75 315.25 C 1094.17 326.94 1100.28 339.52 1107.75 351.25 C 1115.23 362.98 1120.45 376.18 1128.25 387.75 C 1136.06 399.31 1142.83 411.15 1149.75 423.25 C 1156.68 435.34 1163.57 447.40 1170.77 459.23 C 1177.97 471.06 1184.45 483.41 1191.75 495.25 C 1199.05 507.09 1205.56 519.28 1212.77 531.23 C 1219.98 543.18 1226.95 556.00 1233.93 568.07 C 1240.90 580.14 1248.68 591.56 1255.30 603.70 C 1261.93 615.83 1269.36 627.94 1275.93 640.07 C 1282.49 652.21 1291.40 663.18 1297.30 675.70 C 1303.21 688.22 1312.44 698.91 1318.77 711.23 C 1325.10 723.55 1332.57 735.27 1339.77 747.23 C 1346.97 759.19 1353.30 771.16 1360.92 783.08 C 1368.53 795.00 1373.89 807.66 1381.31 819.69 C 1388.72 831.73 1395.57 842.74 1402.92 855.08 C 1410.27 867.41 1416.05 878.27 1423.92 891.08 C 1431.80 903.88 1433.16 919.81 1420.92 928.92 C 1408.68 938.03 1404.56 949.88 1393.30 958.30 C 1382.05 966.72 1375.49 978.10 1365.25 987.25 C 1355.00 996.39 1345.44 1005.77 1336.68 1015.68 C 1327.92 1025.59 1316.00 1033.77 1307.25 1043.25 C 1298.51 1052.74 1289.22 1063.23 1279.25 1072.25 C 1269.28 1081.27 1261.07 1091.93 1250.92 1100.92 C 1240.77 1109.90 1232.59 1120.45 1222.75 1129.75 C 1212.92 1139.05 1203.35 1148.47 1194.25 1158.25 C 1185.15 1168.03 1174.37 1176.35 1165.68 1186.68 C 1156.98 1197.01 1145.30 1204.24 1136.25 1214.25 C 1127.21 1224.27 1118.22 1233.84 1108.25 1243.25 C 1098.28 1252.65 1089.87 1262.46 1079.92 1271.92 C 1069.97 1281.38 1060.91 1291.32 1050.77 1300.77 C 1040.63 1310.22 1032.62 1319.16 1022.75 1329.75 C 1012.89 1340.35 994.96 1341.73 982.99 1335.01 C 971.02 1328.29 962.43 1317.46 952.70 1308.30 C 942.96 1299.14 933.15 1289.83 923.75 1280.25 C 914.34 1270.68 904.09 1261.76 894.75 1252.25 C 885.42 1242.74 875.51 1232.80 866.25 1223.75 C 856.99 1214.70 845.21 1197.58 834.75 1207.75 C 824.28 1217.91 815.96 1225.98 806.25 1236.25 C 796.53 1246.51 786.19 1254.31 777.68 1264.68 C 769.17 1275.05 756.73 1281.78 748.25 1292.25 C 739.77 1302.72 728.59 1310.15 719.31 1320.31 C 710.02 1330.46 697.71 1342.26 682.78 1339.22 C 667.84 1336.18 659.47 1325.96 649.25 1315.75 C 639.03 1305.55 631.10 1296.30 621.25 1286.75 C 611.40 1277.19 603.13 1266.48 593.25 1257.75 C 583.36 1249.02 573.77 1239.12 564.25 1229.75 C 554.72 1220.38 544.19 1211.44 535.25 1201.75 C 526.31 1192.07 516.17 1183.34 506.75 1173.25 C 497.34 1163.16 488.78 1154.06 478.75 1144.25 C 468.73 1134.43 459.43 1125.04 450.25 1115.75 C 441.06 1106.47 430.64 1097.61 421.25 1087.75 C 411.85 1077.90 402.59 1069.00 392.75 1059.25 C 382.91 1049.49 374.23 1039.88 364.75 1030.25 C 355.28 1020.62 344.97 1011.04 335.75 1001.25 C 326.54 991.46 315.96 982.48 306.75 973.25 C 297.54 964.02 286.17 954.08 278.25 944.75 C 270.34 935.41 256.19 924.34 255.35 911.31 C 254.52 898.27 266.31 882.82 272.25 871.25 C 278.19 859.68 286.67 846.75 292.98 834.98 C 299.28 823.20 307.51 811.60 314.31 799.31 C 321.10 787.01 328.55 775.50 335.77 763.77 C 342.98 752.03 349.11 739.38 356.77 727.77 C 364.43 716.16 370.44 703.58 377.32 691.32 C 384.21 679.06 392.33 667.89 398.92 655.92 C 405.50 643.95 411.82 631.26 419.77 619.77 C 427.72 608.28 433.09 594.95 439.98 582.98 C 446.86 571.00 455.78 560.26 462.70 548.70 C 469.61 537.13 475.56 523.88 483.75 512.75 C 491.94 501.62 496.03 486.56 503.32 475.32 C 510.62 464.08 518.94 452.56 525.25 440.25 C 531.57 427.95 539.95 416.65 546.77 404.77 C 553.59 392.89 559.56 379.70 567.25 368.25 C 574.94 356.80 581.03 344.39 588.31 332.31 C 595.58 320.22 603.08 308.89 609.92 296.92 C 616.77 284.96 623.91 273.11 630.75 260.75 C 637.60 248.40 645.02 237.76 651.77 224.77 C 658.52 211.78 668.20 199.85 685.00 200.00 Z"/>
</g>
<g fill="#000000" fill-opacity="1.00" stroke="None">
<path d="
M 685.00 200.00 
C 668.20 199.85 658.52 211.78 651.77 224.77 C 645.02 237.76 637.60 248.40 630.75 260.75 C 623.91 273.11 616.77 284.96 609.92 296.92 C 603.08 308.89 595.58 320.22 588.31 332.31 C 581.03 344.39 574.94 356.80 567.25 368.25 C 559.56 379.70 553.59 392.89 546.77 404.77 C 539.95 416.65 531.57 427.95 525.25 440.25 C 518.94 452.56 510.62 464.08 503.32 475.32 C 496.03 486.56 491.94 501.62 483.75 512.75 C 475.56 523.88 469.61 537.13 462.70 548.70 C 455.78 560.26 446.86 571.00 439.98 582.98 C 433.09 594.95 427.72 608.28 419.77 619.77 C 411.82 631.26 405.50 643.95 398.92 655.92 C 392.33 667.89 384.21 679.06 377.32 691.32 C 370.44 703.58 364.43 716.16 356.77 727.77 C 349.11 739.38 342.98 752.03 335.77 763.77 C 328.55 775.50 321.10 787.01 314.31 799.31 C 307.51 811.60 299.28 823.20 292.98 834.98 C 286.67 846.75 278.19 859.68 272.25 871.25 C 266.31 882.82 254.52 898.27 255.35 911.31 C 256.19 924.34 270.34 935.41 278.25 944.75 C 286.17 954.08 297.54 964.02 306.75 973.25 C 315.96 982.48 326.54 991.46 335.75 1001.25 C 344.97 1011.04 355.28 1020.62 364.75 1030.25 C 374.23 1039.88 382.91 1049.49 392.75 1059.25 C 402.59 1069.00 411.85 1077.90 421.25 1087.75 C 430.64 1097.61 441.06 1106.47 450.25 1115.75 C 459.43 1125.04 468.73 1134.43 478.75 1144.25 C 488.78 1154.06 497.34 1163.16 506.75 1173.25 C 516.17 1183.34 526.31 1192.07 535.25 1201.75 C 544.19 1211.44 554.72 1220.38 564.25 1229.75 C 573.77 1239.12 583.36 1249.02 593.25 1257.75 C 603.13 1266.48 611.40 1277.19 621.25 1286.75 C 631.10 1296.30 639.03 1305.55 649.25 1315.75 C 659.47 1325.96 667.84 1336.18 682.78 1339.22 C 697.71 1342.26 710.02 1330.46 719.31 1320.31 C 728.59 1310.15 739.77 1302.72 748.25 1292.25 C 756.73 1281.78 769.17 1275.05 777.68 1264.68 C 786.19 1254.31 796.53 1246.51 806.25 1236.25 C 815.96 1225.98 824.28 1217.91 834.75 1207.75 C 845.21 1197.58 856.99 1214.70 866.25 1223.75 C 875.51 1232.80 885.42 1242.74 894.75 1252.25 C 904.09 1261.76 914.34 1270.68 923.75 1280.25 C 933.15 1289.83 942.96 1299.14 952.70 1308.30 C 962.43 1317.46 971.02 1328.29 982.99 1335.01 C 994.96 1341.73 1012.89 1340.35 1022.75 1329.75 C 1032.62 1319.16 1040.63 1310.22 1050.77 1300.77 C 1060.91 1291.32 1069.97 1281.38 1079.92 1271.92 C 1089.87 1262.46 1098.28 1252.65 1108.25 1243.25 C 1118.22 1233.84 1127.21 1224.27 1136.25 1214.25 C 1145.30 1204.24 1156.98 1197.01 1165.68 1186.68 C 1174.37 1176.35 1185.15 1168.03 1194.25 1158.25 C 1203.35 1148.47 1212.92 1139.05 1222.75 1129.75 C 1232.59 1120.45 1240.77 1109.90 1250.92 1100.92 C 1261.07 1091.93 1269.28 1081.27 1279.25 1072.25 C 1289.22 1063.23 1298.51 1052.74 1307.25 1043.25 C 1316.00 1033.77 1327.92 1025.59 1336.68 1015.68 C 1345.44 1005.77 1355.00 996.39 1365.25 987.25 C 1375.49 978.10 1382.05 966.72 1393.30 958.30 C 1404.56 949.88 1408.68 938.03 1420.92 928.92 C 1433.16 919.81 1431.80 903.88 1423.92 891.08 C 1416.05 878.27 1410.27 867.41 1402.92 855.08 C 1395.57 842.74 1388.72 831.73 1381.31 819.69 C 1373.89 807.66 1368.53 795.00 1360.92 783.08 C 1353.30 771.16 1346.97 759.19 1339.77 747.23 C 1332.57 735.27 1325.10 723.55 1318.77 711.23 C 1312.44 698.91 1303.21 688.22 1297.30 675.70 C 1291.40 663.18 1282.49 652.21 1275.93 640.07 C 1269.36 627.94 1261.93 615.83 1255.30 603.70 C 1248.68 591.56 1240.90 580.14 1233.93 568.07 C 1226.95 556.00 1219.98 543.18 1212.77 531.23 C 1205.56 519.28 1199.05 507.09 1191.75 495.25 C 1184.45 483.41 1177.97 471.06 1170.77 459.23 C 1163.57 447.40 1156.68 435.34 1149.75 423.25 C 1142.83 411.15 1136.06 399.31 1128.25 387.75 C 1120.45 376.18 1115.23 362.98 1107.75 351.25 C 1100.28 339.52 1094.17 326.94 1086.75 315.25 C 1079.34 303.55 1073.08 291.17 1065.30 279.70 C 1057.53 268.22 1052.18 255.06 1044.30 243.70 C 1036.43 232.33 1030.97 219.30 1022.75 208.25 C 1014.53 197.20 989.23 196.15 978.75 204.75 C 968.28 213.35 962.57 227.30 954.77 237.77 C 946.97 248.24 941.94 262.72 933.98 273.98 C 926.01 285.23 920.89 298.92 913.75 310.75 C 906.61 322.59 898.41 332.73 891.31 345.31 C 884.20 357.88 878.72 368.65 870.75 381.75 C 862.79 394.85 859.31 403.70 849.92 417.92 C 840.54 432.15 831.71 410.95 825.25 399.75 C 818.79 388.55 810.07 376.20 803.75 364.25 C 797.44 352.30 788.92 340.77 782.32 328.68 C 775.73 316.59 768.38 304.88 761.75 292.25 C 755.12 279.62 746.42 269.95 740.75 256.25 C 735.09 242.54 724.90 235.92 718.92 221.08 C 712.95 206.23 700.96 200.14 685.00 200.00
M 996.00 282.00 
C 1006.59 287.14 1009.87 300.16 1016.31 309.70 C 1022.74 319.23 1028.04 329.92 1034.25 339.75 C 1040.46 349.58 1046.40 359.59 1052.25 369.75 C 1058.09 379.91 1064.04 389.95 1069.77 400.23 C 1075.50 410.51 1082.52 420.63 1087.92 431.08 C 1093.33 441.53 1099.50 451.28 1105.77 461.23 C 1112.04 471.18 1116.91 481.61 1123.75 491.25 C 1130.60 500.88 1134.40 512.23 1140.92 522.08 C 1147.45 531.92 1153.86 542.26 1159.25 552.75 C 1164.65 563.23 1171.49 572.63 1176.92 583.08 C 1182.35 593.52 1188.99 602.94 1194.92 613.08 C 1200.86 623.21 1206.51 633.24 1212.77 643.23 C 1219.03 653.22 1223.91 663.93 1229.92 674.08 C 1235.94 684.22 1242.55 694.41 1248.31 704.70 C 1254.06 714.98 1260.78 724.59 1265.92 735.08 C 1271.07 745.56 1279.04 754.27 1284.25 764.75 C 1289.47 775.22 1295.82 784.79 1302.25 794.75 C 1308.68 804.70 1313.87 815.70 1320.25 825.75 C 1326.64 835.80 1331.86 845.56 1338.25 855.75 C 1344.65 865.93 1348.67 876.36 1355.31 886.70 C 1361.94 897.03 1368.40 909.79 1357.70 917.70 C 1346.99 925.60 1342.78 933.60 1333.25 941.25 C 1323.72 948.90 1318.04 958.10 1309.25 966.25 C 1300.45 974.39 1292.63 980.99 1284.25 989.25 C 1275.86 997.51 1268.21 1005.12 1260.30 1013.30 C 1252.38 1021.47 1243.92 1028.85 1235.75 1036.75 C 1227.59 1044.65 1219.97 1053.78 1211.75 1061.75 C 1203.54 1069.73 1194.90 1076.96 1187.08 1085.08 C 1179.26 1093.20 1171.34 1101.43 1163.30 1109.30 C 1155.26 1117.18 1147.44 1125.45 1139.23 1133.23 C 1131.02 1141.01 1123.49 1149.38 1115.25 1157.25 C 1107.01 1165.12 1098.57 1173.34 1090.75 1181.75 C 1082.93 1190.16 1073.78 1197.14 1065.92 1204.92 C 1058.05 1212.70 1050.32 1221.95 1042.75 1229.75 C 1035.17 1237.55 1025.40 1245.71 1018.25 1253.25 C 1011.10 1260.78 1001.22 1276.10 992.23 1267.77 C 983.24 1259.44 976.69 1252.02 968.25 1243.75 C 959.81 1235.48 953.02 1228.08 943.75 1220.25 C 934.48 1212.41 929.88 1203.98 919.75 1196.25 C 909.62 1188.52 906.77 1180.24 895.25 1171.75 C 883.72 1163.26 889.16 1151.89 898.77 1143.77 C 908.38 1135.65 912.82 1126.62 921.75 1118.75 C 930.68 1110.88 937.94 1102.95 946.25 1095.25 C 954.56 1087.55 961.51 1078.56 969.75 1070.75 C 977.99 1062.94 986.71 1054.94 994.75 1046.75 C 1002.79 1038.56 1010.20 1030.38 1018.70 1022.70 C 1027.19 1015.02 1033.20 1005.68 1041.77 997.77 C 1050.34 989.86 1057.79 982.51 1066.25 974.25 C 1074.70 965.99 1081.91 957.50 1090.25 949.25 C 1098.59 941.00 1105.75 934.26 1114.23 925.23 C 1122.71 916.20 1116.74 899.49 1111.68 889.32 C 1106.62 879.16 1098.95 869.54 1093.70 859.30 C 1088.45 849.07 1081.94 839.02 1076.23 828.77 C 1070.52 818.52 1063.88 808.34 1057.75 798.25 C 1051.61 788.17 1047.36 777.03 1040.70 767.31 C 1034.03 757.58 1027.68 748.06 1022.22 737.78 C 1016.77 727.49 1010.20 717.93 1004.25 707.75 C 998.29 697.58 992.46 686.46 986.68 676.32 C 980.90 666.18 974.57 656.51 968.70 646.31 C 962.82 636.10 957.26 625.81 951.23 615.77 C 945.19 605.73 939.30 595.80 933.25 585.75 C 927.20 575.70 921.65 565.81 915.25 555.75 C 908.85 545.70 904.04 534.87 897.23 524.77 C 890.41 514.68 886.98 504.80 879.25 494.75 C 871.51 484.71 882.50 473.81 887.77 463.77 C 893.04 453.73 899.76 443.90 905.75 433.75 C 911.74 423.60 918.18 413.31 924.25 403.25 C 930.32 393.19 935.93 382.98 941.75 372.75 C 947.57 362.52 954.03 353.17 959.92 342.92 C 965.81 332.66 970.65 321.77 976.98 311.98 C 983.30 302.18 989.00 291.32 996.00 282.00
M 683.00 1271.00 
C 671.86 1258.71 659.62 1247.17 648.25 1234.75 C 636.87 1222.34 623.43 1211.05 611.92 1199.08 C 600.41 1187.11 587.75 1175.27 575.77 1163.23 C 563.79 1151.19 552.50 1138.39 540.25 1126.75 C 527.99 1115.12 516.35 1102.42 504.25 1090.75 C 492.15 1079.09 479.81 1067.67 467.75 1055.25 C 455.69 1042.83 444.33 1032.16 432.25 1019.75 C 420.17 1007.34 408.00 996.41 396.25 983.75 C 384.50 971.09 370.73 961.68 359.90 948.10 C 349.07 934.52 331.92 927.69 323.75 912.25 C 315.59 896.81 336.43 877.19 342.77 862.77 C 349.11 848.35 362.18 832.67 369.78 817.78 C 377.37 802.88 388.23 787.40 396.31 772.31 C 404.38 757.21 414.79 742.75 422.75 727.75 C 430.72 712.76 440.56 697.25 449.26 682.26 C 457.96 667.26 467.38 652.31 476.25 637.25 C 485.12 622.19 493.18 606.22 502.25 591.25 C 511.33 576.29 520.78 561.64 529.25 546.25 C 537.73 530.87 547.77 516.64 555.92 500.92 C 564.08 485.21 576.17 470.67 580.00 455.00
C 588.53 447.25 595.27 434.64 601.75 423.75 C 608.24 412.86 614.25 400.24 621.30 389.30 C 628.36 378.37 633.55 367.14 640.75 355.75 C 647.96 344.37 652.65 333.19 660.75 321.75 C 668.85 310.32 670.99 300.37 680.77 288.77 C 690.55 277.17 697.96 297.74 704.25 307.75 C 710.55 317.75 717.61 330.14 724.25 340.75 C 730.89 351.36 737.16 363.97 744.25 374.75 C 751.35 385.52 756.22 397.23 763.77 408.23 C 771.32 419.23 776.70 430.76 783.31 442.69 C 789.91 454.63 795.91 462.93 803.75 475.25 C 811.59 487.56 801.60 502.98 794.74 513.74 C 787.89 524.51 781.06 536.06 774.25 547.25 C 767.43 558.43 761.14 568.99 754.25 580.25 C 747.36 591.51 741.79 603.94 734.68 614.68 C 727.56 625.42 722.09 637.11 715.08 648.08 C 708.06 659.04 701.13 670.89 695.22 682.22 C 689.32 693.56 681.13 702.99 674.70 714.70 C 668.26 726.41 661.00 737.56 655.23 749.23 C 649.46 760.89 640.74 770.85 635.25 782.25 C 629.75 793.64 621.57 804.87 615.25 816.25 C 608.93 827.62 601.98 838.49 595.23 849.23 C 588.48 859.97 582.74 873.38 575.75 883.75 C 568.75 894.11 559.14 908.97 567.25 919.75 C 575.37 930.53 583.51 938.84 592.75 948.25 C 601.99 957.65 610.62 966.16 619.75 975.25 C 628.89 984.33 637.70 992.58 646.25 1001.75 C 654.79 1010.92 664.60 1019.41 673.25 1028.75 C 681.90 1038.10 691.43 1045.77 699.75 1055.25 C 708.07 1064.72 717.99 1073.69 726.70 1082.30 C 735.40 1090.92 744.46 1100.72 753.08 1108.92 C 761.71 1117.12 772.14 1127.69 780.25 1135.75 C 788.36 1143.82 804.60 1158.21 795.29 1168.29 C 785.99 1178.38 775.65 1184.02 766.75 1193.75 C 757.86 1203.49 750.22 1211.83 740.30 1220.30 C 730.39 1228.78 723.70 1239.97 714.30 1248.30 C 704.89 1256.63 696.84 1269.76 683.00 1271.00
M 841.00 545.00 
C 850.16 549.82 852.68 560.82 857.77 569.23 C 862.86 577.64 868.94 585.80 873.32 594.68 C 877.71 603.56 884.28 612.29 888.77 621.23 C 893.26 630.17 898.98 638.31 903.77 647.23 C 908.56 656.15 914.15 665.03 919.26 673.74 C 924.36 682.45 929.80 690.71 934.30 699.70 C 938.81 708.68 945.24 716.24 949.77 725.23 C 954.30 734.22 960.36 742.85 965.30 751.70 C 970.24 760.55 976.32 768.44 980.32 777.68 C 984.32 786.92 992.20 794.56 996.30 803.70 C 1000.41 812.83 1006.80 821.14 1010.92 830.08 C 1015.05 839.01 1023.22 847.37 1026.77 856.23 C 1030.32 865.09 1038.68 873.96 1041.77 882.23 C 1044.86 890.50 1056.83 902.20 1053.67 910.67 C 1050.51 919.14 1037.92 923.36 1032.25 931.25 C 1026.57 939.14 1018.23 944.64 1011.92 951.92 C 1005.60 959.20 997.23 965.55 990.75 972.75 C 984.28 979.96 976.41 985.85 969.70 992.70 C 962.99 999.56 956.34 1006.76 949.75 1013.75 C 943.16 1020.74 934.19 1026.99 927.75 1033.75 C 921.32 1040.52 913.78 1047.37 906.75 1053.75 C 899.72 1060.13 893.71 1069.51 886.70 1075.70 C 879.69 1081.88 871.88 1089.28 865.25 1095.25 C 858.62 1101.22 851.82 1113.10 843.75 1115.75 C 835.69 1118.40 829.09 1103.53 822.08 1098.92 C 815.07 1094.30 808.70 1084.04 801.75 1078.25 C 794.80 1072.46 787.84 1063.74 780.75 1057.25 C 773.66 1050.76 767.25 1043.44 760.25 1036.75 C 753.25 1030.06 746.23 1022.47 739.25 1015.75 C 732.27 1009.03 725.74 1001.87 718.75 995.25 C 711.76 988.62 705.33 981.38 697.75 975.25 C 690.17 969.11 684.53 960.46 677.25 953.75 C 669.97 947.04 662.90 941.02 656.23 933.77 C 649.57 926.51 641.23 921.82 634.75 913.25 C 628.28 904.68 636.06 892.09 640.97 883.97 C 645.89 875.86 651.63 866.11 656.75 857.75 C 661.88 849.39 666.75 840.36 671.77 831.77 C 676.79 823.18 682.50 815.31 687.25 806.25 C 692.01 797.20 697.90 788.64 702.71 779.71 C 707.51 770.77 713.46 763.12 718.25 754.25 C 723.05 745.39 728.41 736.35 733.75 727.75 C 739.10 719.16 742.19 709.84 748.31 701.31 C 754.42 692.77 758.36 683.86 762.99 674.99 C 767.63 666.12 775.75 658.91 779.32 649.32 C 782.89 639.74 790.09 632.97 794.31 623.31 C 798.52 613.64 805.29 605.86 809.31 596.31 C 813.32 586.75 821.62 580.94 825.25 571.25 C 828.89 561.57 836.88 554.49 841.00 545.00 Z"/>
</g>
<g fill="#FFFFFF" fill-opacity="1.00" stroke="None">
<path d="
M 996.00 282.00 
C 989.00 291.32 983.30 302.18 976.98 311.98 C 970.65 321.77 965.81 332.66 959.92 342.92 C 954.03 353.17 947.57 362.52 941.75 372.75 C 935.93 382.98 930.32 393.19 924.25 403.25 C 918.18 413.31 911.74 423.60 905.75 433.75 C 899.76 443.90 893.04 453.73 887.77 463.77 C 882.50 473.81 871.51 484.71 879.25 494.75 C 886.98 504.80 890.41 514.68 897.23 524.77 C 904.04 534.87 908.85 545.70 915.25 555.75 C 921.65 565.81 927.20 575.70 933.25 585.75 C 939.30 595.80 945.19 605.73 951.23 615.77 C 957.26 625.81 962.82 636.10 968.70 646.31 C 974.57 656.51 980.90 666.18 986.68 676.32 C 992.46 686.46 998.29 697.58 1004.25 707.75 C 1010.20 717.93 1016.77 727.49 1022.22 737.78 C 1027.68 748.06 1034.03 757.58 1040.70 767.31 C 1047.36 777.03 1051.61 788.17 1057.75 798.25 C 1063.88 808.34 1070.52 818.52 1076.23 828.77 C 1081.94 839.02 1088.45 849.07 1093.70 859.30 C 1098.95 869.54 1106.62 879.16 1111.68 889.32 C 1116.74 899.49 1122.71 916.20 1114.23 925.23 C 1105.75 934.26 1098.59 941.00 1090.25 949.25 C 1081.91 957.50 1074.70 965.99 1066.25 974.25 C 1057.79 982.51 1050.34 989.86 1041.77 997.77 C 1033.20 1005.68 1027.19 1015.02 1018.70 1022.70 C 1010.20 1030.38 1002.79 1038.56 994.75 1046.75 C 986.71 1054.94 977.99 1062.94 969.75 1070.75 C 961.51 1078.56 954.56 1087.55 946.25 1095.25 C 937.94 1102.95 930.68 1110.88 921.75 1118.75 C 912.82 1126.62 908.38 1135.65 898.77 1143.77 C 889.16 1151.89 883.72 1163.26 895.25 1171.75 C 906.77 1180.24 909.62 1188.52 919.75 1196.25 C 929.88 1203.98 934.48 1212.41 943.75 1220.25 C 953.02 1228.08 959.81 1235.48 968.25 1243.75 C 976.69 1252.02 983.24 1259.44 992.23 1267.77 C 1001.22 1276.10 1011.10 1260.78 1018.25 1253.25 C 1025.40 1245.71 1035.17 1237.55 1042.75 1229.75 C 1050.32 1221.95 1058.05 1212.70 1065.92 1204.92 C 1073.78 1197.14 1082.93 1190.16 1090.75 1181.75 C 1098.57 1173.34 1107.01 1165.12 1115.25 1157.25 C 1123.49 1149.38 1131.02 1141.01 1139.23 1133.23 C 1147.44 1125.45 1155.26 1117.18 1163.30 1109.30 C 1171.34 1101.43 1179.26 1093.20 1187.08 1085.08 C 1194.90 1076.96 1203.54 1069.73 1211.75 1061.75 C 1219.97 1053.78 1227.59 1044.65 1235.75 1036.75 C 1243.92 1028.85 1252.38 1021.47 1260.30 1013.30 C 1268.21 1005.12 1275.86 997.51 1284.25 989.25 C 1292.63 980.99 1300.45 974.39 1309.25 966.25 C 1318.04 958.10 1323.72 948.90 1333.25 941.25 C 1342.78 933.60 1346.99 925.60 1357.70 917.70 C 1368.40 909.79 1361.94 897.03 1355.31 886.70 C 1348.67 876.36 1344.65 865.93 1338.25 855.75 C 1331.86 845.56 1326.64 835.80 1320.25 825.75 C 1313.87 815.70 1308.68 804.70 1302.25 794.75 C 1295.82 784.79 1289.47 775.22 1284.25 764.75 C 1279.04 754.27 1271.07 745.56 1265.92 735.08 C 1260.78 724.59 1254.06 714.98 1248.31 704.70 C 1242.55 694.41 1235.94 684.22 1229.92 674.08 C 1223.91 663.93 1219.03 653.22 1212.77 643.23 C 1206.51 633.24 1200.86 623.21 1194.92 613.08 C 1188.99 602.94 1182.35 593.52 1176.92 583.08 C 1171.49 572.63 1164.65 563.23 1159.25 552.75 C 1153.86 542.26 1147.45 531.92 1140.92 522.08 C 1134.40 512.23 1130.60 500.88 1123.75 491.25 C 1116.91 481.61 1112.04 471.18 1105.77 461.23 C 1099.50 451.28 1093.33 441.53 1087.92 431.08 C 1082.52 420.63 1075.50 410.51 1069.77 400.23 C 1064.04 389.95 1058.09 379.91 1052.25 369.75 C 1046.40 359.59 1040.46 349.58 1034.25 339.75 C 1028.04 329.92 1022.74 319.23 1016.31 309.70 C 1009.87 300.16 1006.59 287.14 996.00 282.00 Z"/>
</g>
<g fill="#FFFFFF" fill-opacity="1.00" stroke="None">
<path d="
M 683.00 1271.00 
C 696.84 1269.76 704.89 1256.63 714.30 1248.30 C 723.70 1239.97 730.39 1228.78 740.30 1220.30 C 750.22 1211.83 757.86 1203.49 766.75 1193.75 C 775.65 1184.02 785.99 1178.38 795.29 1168.29 C 804.60 1158.21 788.36 1143.82 780.25 1135.75 C 772.14 1127.69 761.71 1117.12 753.08 1108.92 C 744.46 1100.72 735.40 1090.92 726.70 1082.30 C 717.99 1073.69 708.07 1064.72 699.75 1055.25 C 691.43 1045.77 681.90 1038.10 673.25 1028.75 C 664.60 1019.41 654.79 1010.92 646.25 1001.75 C 637.70 992.58 628.89 984.33 619.75 975.25 C 610.62 966.16 601.99 957.65 592.75 948.25 C 583.51 938.84 575.37 930.53 567.25 919.75 C 559.14 908.97 568.75 894.11 575.75 883.75 C 582.74 873.38 588.48 859.97 595.23 849.23 C 601.98 838.49 608.93 827.62 615.25 816.25 C 621.57 804.87 629.75 793.64 635.25 782.25 C 640.74 770.85 649.46 760.89 655.23 749.23 C 661.00 737.56 668.26 726.41 674.70 714.70 C 681.13 702.99 689.32 693.56 695.22 682.22 C 701.13 670.89 708.06 659.04 715.08 648.08 C 722.09 637.11 727.56 625.42 734.68 614.68 C 741.79 603.94 747.36 591.51 754.25 580.25 C 761.14 568.99 767.43 558.43 774.25 547.25 C 781.06 536.06 787.89 524.51 794.74 513.74 C 801.60 502.98 811.59 487.56 803.75 475.25 C 795.91 462.93 789.91 454.63 783.31 442.69 C 776.70 430.76 771.32 419.23 763.77 408.23 C 756.22 397.23 751.35 385.52 744.25 374.75 C 737.16 363.97 730.89 351.36 724.25 340.75 C 717.61 330.14 710.55 317.75 704.25 307.75 C 697.96 297.74 690.55 277.17 680.77 288.77 C 670.99 300.37 668.85 310.32 660.75 321.75 C 652.65 333.19 647.96 344.37 640.75 355.75 C 633.55 367.14 628.36 378.37 621.30 389.30 C 614.25 400.24 608.24 412.86 601.75 423.75 C 595.27 434.64 588.53 447.25 580.00 455.00
C 576.17 470.67 564.08 485.21 555.92 500.92 C 547.77 516.64 537.73 530.87 529.25 546.25 C 520.78 561.64 511.33 576.29 502.25 591.25 C 493.18 606.22 485.12 622.19 476.25 637.25 C 467.38 652.31 457.96 667.26 449.26 682.26 C 440.56 697.25 430.72 712.76 422.75 727.75 C 414.79 742.75 404.38 757.21 396.31 772.31 C 388.23 787.40 377.37 802.88 369.78 817.78 C 362.18 832.67 349.11 848.35 342.77 862.77 C 336.43 877.19 315.59 896.81 323.75 912.25 C 331.92 927.69 349.07 934.52 359.90 948.10 C 370.73 961.68 384.50 971.09 396.25 983.75 C 408.00 996.41 420.17 1007.34 432.25 1019.75 C 444.33 1032.16 455.69 1042.83 467.75 1055.25 C 479.81 1067.67 492.15 1079.09 504.25 1090.75 C 516.35 1102.42 527.99 1115.12 540.25 1126.75 C 552.50 1138.39 563.79 1151.19 575.77 1163.23 C 587.75 1175.27 600.41 1187.11 611.92 1199.08 C 623.43 1211.05 636.87 1222.34 648.25 1234.75 C 659.62 1247.17 671.86 1258.71 683.00 1271.00 Z"/>
</g>
<g fill="#FFFFFF" fill-opacity="1.00" stroke="None">
<path d="
M 841.00 545.00 
C 836.88 554.49 828.89 561.57 825.25 571.25 C 821.62 580.94 813.32 586.75 809.31 596.31 C 805.29 605.86 798.52 613.64 794.31 623.31 C 790.09 632.97 782.89 639.74 779.32 649.32 C 775.75 658.91 767.63 666.12 762.99 674.99 C 758.36 683.86 754.42 692.77 748.31 701.31 C 742.19 709.84 739.10 719.16 733.75 727.75 C 728.41 736.35 723.05 745.39 718.25 754.25 C 713.46 763.12 707.51 770.77 702.71 779.71 C 697.90 788.64 692.01 797.20 687.25 806.25 C 682.50 815.31 676.79 823.18 671.77 831.77 C 666.75 840.36 661.88 849.39 656.75 857.75 C 651.63 866.11 645.89 875.86 640.97 883.97 C 636.06 892.09 628.28 904.68 634.75 913.25 C 641.23 921.82 649.57 926.51 656.23 933.77 C 662.90 941.02 669.97 947.04 677.25 953.75 C 684.53 960.46 690.17 969.11 697.75 975.25 C 705.33 981.38 711.76 988.62 718.75 995.25 C 725.74 1001.87 732.27 1009.03 739.25 1015.75 C 746.23 1022.47 753.25 1030.06 760.25 1036.75 C 767.25 1043.44 773.66 1050.76 780.75 1057.25 C 787.84 1063.74 794.80 1072.46 801.75 1078.25 C 808.70 1084.04 815.07 1094.30 822.08 1098.92 C 829.09 1103.53 835.69 1118.40 843.75 1115.75 C 851.82 1113.10 858.62 1101.22 865.25 1095.25 C 871.88 1089.28 879.69 1081.88 886.70 1075.70 C 893.71 1069.51 899.72 1060.13 906.75 1053.75 C 913.78 1047.37 921.32 1040.52 927.75 1033.75 C 934.19 1026.99 943.16 1020.74 949.75 1013.75 C 956.34 1006.76 962.99 999.56 969.70 992.70 C 976.41 985.85 984.28 979.96 990.75 972.75 C 997.23 965.55 1005.60 959.20 1011.92 951.92 C 1018.23 944.64 1026.57 939.14 1032.25 931.25 C 1037.92 923.36 1050.51 919.14 1053.67 910.67 C 1056.83 902.20 1044.86 890.50 1041.77 882.23 C 1038.68 873.96 1030.32 865.09 1026.77 856.23 C 1023.22 847.37 1015.05 839.01 1010.92 830.08 C 1006.80 821.14 1000.41 812.83 996.30 803.70 C 992.20 794.56 984.32 786.92 980.32 777.68 C 976.32 768.44 970.24 760.55 965.30 751.70 C 960.36 742.85 954.30 734.22 949.77 725.23 C 945.24 716.24 938.81 708.68 934.30 699.70 C 929.80 690.71 924.36 682.45 919.26 673.74 C 914.15 665.03 908.56 656.15 903.77 647.23 C 898.98 638.31 893.26 630.17 888.77 621.23 C 884.28 612.29 877.71 603.56 873.32 594.68 C 868.94 585.80 862.86 577.64 857.77 569.23 C 852.68 560.82 850.16 549.82 841.00 545.00 Z"/>
</g>
</svg>